<svg version="1.1" id="Layer_1" xmlns="http://www.w3.org/2000/svg" xmlns:xlink="http://www.w3.org/1999/xlink" x="0px" y="0px"
	 width="100%" viewBox="0 0 408 418" enable-background="new 0 0 408 418" xml:space="preserve">
<path fill="#222228" opacity="1.000000" stroke="none" 
	d="
M279.000000,419.000000 
	C186.027985,419.000000 93.555984,419.000000 1.041988,419.000000 
	C1.041988,279.736847 1.041988,140.473648 1.041988,1.105234 
	C136.888626,1.105234 272.777344,1.105234 408.833038,1.105234 
	C408.833038,140.333160 408.833038,279.666565 408.833038,419.000000 
	C365.807037,419.000000 322.653534,419.000000 279.000000,419.000000 
M176.565460,220.535217 
	C176.098480,222.023834 175.631500,223.512436 175.025879,225.770294 
	C174.560654,227.799789 174.095428,229.829300 173.174118,232.429855 
	C172.483459,235.620483 171.792801,238.811111 170.671692,242.628922 
	C169.823013,246.086472 168.974335,249.544006 167.833191,253.692200 
	C167.419327,255.395660 167.005463,257.099152 166.219772,259.440552 
	C165.610260,261.887451 165.000732,264.334381 164.101440,267.417389 
	C163.481033,269.947113 162.860611,272.476837 161.977951,275.742126 
	C160.046616,283.162201 158.115265,290.582245 155.893799,298.711456 
	C155.198288,304.788971 151.664810,308.198761 145.052856,309.618500 
	C139.503647,311.630920 133.954437,313.643341 127.684608,315.762848 
	C123.789406,317.200836 119.894211,318.638824 115.247192,320.088898 
	C108.352623,322.063843 110.738724,328.530090 108.588928,333.617157 
	C106.925613,339.902924 105.262291,346.188690 103.503288,352.836029 
	C113.876625,352.836029 123.438248,352.836029 133.928360,352.969482 
	C140.284882,352.924408 146.641418,352.879333 153.926163,352.969635 
	C159.950317,352.924744 165.974487,352.879852 172.927582,352.969238 
	C180.284805,352.924316 187.642029,352.879395 195.928192,352.968719 
	C205.618164,352.923920 215.308121,352.879150 225.927109,352.968811 
	C230.407120,352.979614 234.887131,352.998199 239.367142,352.999695 
	C249.487701,353.003082 249.487701,352.999664 251.821625,342.461151 
	C252.403976,340.038239 252.986313,337.615326 253.883148,334.554718 
	C254.992538,330.141357 256.101929,325.727997 257.224731,321.261353 
	C246.724350,316.811829 236.908981,312.467804 226.933655,308.528900 
	C223.579437,307.204498 222.186584,305.467865 223.162766,301.265900 
	C223.786072,299.181244 224.409378,297.096588 225.460419,294.404022 
	C226.297318,290.937805 227.134216,287.471619 228.363632,283.368317 
	C229.047119,280.632874 229.730606,277.897461 230.777679,274.516754 
	C231.249573,272.368042 231.721481,270.219360 232.620422,267.495148 
	C232.962158,266.102051 233.303894,264.708923 233.923935,262.660034 
	C234.315552,260.785858 234.707169,258.911652 235.528778,256.451782 
	C236.015244,254.299393 236.501709,252.146988 237.374847,249.373627 
	C238.015976,246.728302 238.657089,244.082977 239.708740,240.789566 
	C240.826157,236.202606 241.943573,231.615662 243.478546,226.416794 
	C244.664413,221.614975 245.850296,216.813171 247.444077,211.391830 
	C248.511612,207.335373 249.579163,203.278915 250.924301,198.569305 
	C252.013458,194.069443 253.102615,189.569580 254.608795,184.469879 
	C255.578064,180.687744 256.547333,176.905594 257.808868,172.473740 
	C258.270813,170.098206 258.732727,167.722656 259.702087,164.803589 
	C260.436279,161.868332 261.170502,158.933060 262.260895,155.330551 
	C262.939240,152.580322 263.617615,149.830078 264.680573,146.482422 
	C265.382080,143.653183 266.083588,140.823959 267.101349,137.343460 
	C270.063507,135.885468 273.025665,134.427490 276.725311,132.845978 
	C282.001984,131.017212 287.278687,129.188461 293.274841,127.231705 
	C297.183777,125.819260 301.092743,124.406822 305.748810,122.958008 
	C307.469513,121.680542 309.922119,120.754868 310.743835,119.045288 
	C312.061859,116.303093 312.300171,113.041954 313.375610,109.364822 
	C315.051208,103.140984 316.726807,96.917145 318.575195,90.051567 
	C308.197784,90.051567 298.599823,90.051567 288.075592,89.898193 
	C281.716980,89.949257 275.358368,90.000320 268.073090,89.900398 
	C261.382172,89.951614 254.691254,90.002831 247.073120,89.905830 
	C240.049469,89.955688 233.025818,90.005547 225.075653,89.909126 
	C219.383743,89.957657 213.691849,90.006180 207.077209,89.910561 
	C202.385178,89.959015 197.693130,90.007462 192.083847,89.912537 
	C188.056320,89.960030 184.028809,90.007523 179.146378,89.912094 
	C174.410217,89.085152 171.611832,90.654510 171.364273,96.474075 
	C170.655014,99.318779 169.945740,102.163483 168.974976,105.739845 
	C167.894333,109.754944 166.989960,113.828964 165.673904,117.765358 
	C164.724823,120.604149 165.477615,121.915916 168.213821,123.031647 
	C176.224075,126.297997 184.013351,130.127792 192.100769,133.175476 
	C197.168274,135.085129 199.529572,137.622269 196.962997,143.732758 
	C195.887711,147.786697 194.812439,151.840622 193.235260,156.457901 
	C192.281509,160.525620 191.327759,164.593323 190.082886,169.332260 
	C188.835876,174.163361 187.588852,178.994476 186.071671,184.473557 
	C185.061188,188.649780 184.050705,192.826019 182.611526,197.608459 
	C181.822067,200.738876 181.032593,203.869308 179.986435,207.716507 
	C179.379211,210.143967 178.772003,212.571411 177.888733,215.686218 
	C177.586533,217.123520 177.284317,218.560837 176.565460,220.535217 
z"/>
<path fill="#5448FF" opacity="1.000000" stroke="none" 
	d="
M156.183929,298.002319 
	C158.115265,290.582245 160.046616,283.162201 162.456482,275.427124 
	C164.689514,275.988739 166.664093,276.588898 168.165253,277.783813 
	C188.541122,294.002869 208.796402,310.373810 229.207230,326.548523 
	C236.457123,332.293732 244.045807,337.611450 251.479843,343.124329 
	C249.487701,352.999664 249.487701,353.003082 239.367142,352.999695 
	C234.887131,352.998199 230.407120,352.979614 225.344818,352.592010 
	C223.352524,350.607269 222.143204,348.749847 220.501892,347.429443 
	C201.171509,331.878021 181.801788,316.375061 162.355026,300.969635 
	C160.609726,299.587036 158.255417,298.973175 156.183929,298.002319 
z"/>
<path fill="#594FFF" opacity="1.000000" stroke="none" 
	d="
M156.038864,298.356873 
	C158.255417,298.973175 160.609726,299.587036 162.355026,300.969635 
	C181.801788,316.375061 201.171509,331.878021 220.501892,347.429443 
	C222.143204,348.749847 223.352524,350.607269 224.880310,352.524780 
	C215.308121,352.879150 205.618164,352.923920 195.385162,352.574829 
	C193.083130,350.259125 191.533142,348.079346 189.531281,346.457214 
	C176.283325,335.722565 162.905869,325.147705 149.667847,314.400970 
	C148.083527,313.114807 147.085785,311.106079 145.816147,309.432281 
	C151.664810,308.198761 155.198288,304.788971 156.038864,298.356873 
z"/>
<path fill="#950097" opacity="1.000000" stroke="none" 
	d="
M257.516571,173.123444 
	C256.547333,176.905594 255.578064,180.687744 254.034393,184.707275 
	C251.325668,183.729065 248.990524,182.766495 247.089096,181.257446 
	C232.959030,170.043289 218.951065,158.675156 204.807571,147.478134 
	C202.527161,145.672806 199.763489,144.477905 197.223221,143.000824 
	C199.529572,137.622269 197.168274,135.085129 192.100769,133.175476 
	C184.013351,130.127792 176.224075,126.297997 168.213821,123.031647 
	C165.477615,121.915916 164.724823,120.604149 165.673904,117.765358 
	C166.989960,113.828964 167.894333,109.754944 169.412140,105.494583 
	C171.095032,106.068359 172.416763,106.792519 173.575287,107.720444 
	C196.648132,126.200859 219.652191,144.767731 242.802109,163.150955 
	C247.428986,166.825134 252.597702,169.816971 257.516571,173.123444 
z"/>
<path fill="#7F00B8" opacity="1.000000" stroke="none" 
	d="
M247.036163,212.011353 
	C245.850296,216.813171 244.664413,221.614975 242.963409,226.565491 
	C231.095047,217.776917 219.814407,208.745224 208.362122,199.936737 
	C201.155045,194.393417 193.690750,189.184494 186.341843,183.825577 
	C187.588852,178.994476 188.835876,174.163361 190.571777,169.175842 
	C202.551315,178.022629 213.993088,187.089157 225.550644,196.005630 
	C232.620590,201.459991 239.868286,206.683929 247.036163,212.011353 
z"/>
<path fill="#9B008F" opacity="1.000000" stroke="none" 
	d="
M257.662720,172.798584 
	C252.597702,169.816971 247.428986,166.825134 242.802109,163.150955 
	C219.652191,144.767731 196.648132,126.200859 173.575287,107.720444 
	C172.416763,106.792519 171.095032,106.068359 169.542877,105.128754 
	C169.945740,102.163483 170.655014,99.318779 171.884308,96.339676 
	C182.613876,104.144852 192.913208,111.972115 203.013504,120.048279 
	C221.801773,135.071335 240.474091,150.239410 259.194672,165.347122 
	C258.732727,167.722656 258.270813,170.098206 257.662720,172.798584 
z"/>
<path fill="#5C55FF" opacity="1.000000" stroke="none" 
	d="
M145.434509,309.525391 
	C147.085785,311.106079 148.083527,313.114807 149.667847,314.400970 
	C162.905869,325.147705 176.283325,335.722565 189.531281,346.457214 
	C191.533142,348.079346 193.083130,350.259125 194.920700,352.507690 
	C187.642029,352.879395 180.284805,352.924316 172.345306,352.592468 
	C170.221207,350.510437 168.865494,348.578400 167.107834,347.136139 
	C154.252243,336.587524 141.316010,326.137146 128.405243,315.655762 
	C133.954437,313.643341 139.503647,311.630920 145.434509,309.525391 
z"/>
<path fill="#8700AD" opacity="1.000000" stroke="none" 
	d="
M247.240112,211.701599 
	C239.868286,206.683929 232.620590,201.459991 225.550644,196.005630 
	C213.993088,187.089157 202.551315,178.022629 190.717346,168.840225 
	C191.327759,164.593323 192.281509,160.525620 193.842590,156.278229 
	C197.370041,157.981674 200.457825,159.650589 203.182693,161.783188 
	C219.051224,174.202637 234.834579,186.730942 250.646698,199.222458 
	C249.579163,203.278915 248.511612,207.335373 247.240112,211.701599 
z"/>
<path fill="#7701C4" opacity="1.000000" stroke="none" 
	d="
M186.206757,184.149567 
	C193.690750,189.184494 201.155045,194.393417 208.362122,199.936737 
	C219.814407,208.745224 231.095047,217.776917 242.754639,226.871460 
	C241.943573,231.615662 240.826157,236.202606 239.274857,240.825394 
	C226.482742,230.850677 214.192520,220.754471 201.737106,210.866333 
	C195.663742,206.044769 189.282242,201.611359 183.040222,197.002243 
	C184.050705,192.826019 185.061188,188.649780 186.206757,184.149567 
z"/>
<path fill="#8E00A2" opacity="1.000000" stroke="none" 
	d="
M250.785507,198.895874 
	C234.834579,186.730942 219.051224,174.202637 203.182693,161.783188 
	C200.457825,159.650589 197.370041,157.981674 194.093536,155.996552 
	C194.812439,151.840622 195.887711,147.786697 197.093109,143.366791 
	C199.763489,144.477905 202.527161,145.672806 204.807571,147.478134 
	C218.951065,158.675156 232.959030,170.043289 247.089096,181.257446 
	C248.990524,182.766495 251.325668,183.729065 253.825882,185.007187 
	C253.102615,189.569580 252.013458,194.069443 250.785507,198.895874 
z"/>
<path fill="#5440FA" opacity="1.000000" stroke="none" 
	d="
M251.650726,342.792725 
	C244.045807,337.611450 236.457123,332.293732 229.207230,326.548523 
	C208.796402,310.373810 188.541122,294.002869 168.165253,277.783813 
	C166.664093,276.588898 164.689514,275.988739 162.587616,275.059326 
	C162.860611,272.476837 163.481033,269.947113 164.638763,267.177002 
	C167.475815,268.226166 170.002731,269.229950 172.039871,270.849640 
	C191.071915,285.982025 209.976196,301.275177 229.012970,316.401581 
	C237.081177,322.812500 245.376541,328.937469 253.568665,335.192413 
	C252.986313,337.615326 252.403976,340.038239 251.650726,342.792725 
z"/>
<path fill="#B70067" opacity="1.000000" stroke="none" 
	d="
M226.002167,90.055405 
	C233.025818,90.005547 240.049469,89.955688 247.650146,90.297600 
	C249.329330,92.123535 250.197327,93.851143 251.569901,94.946465 
	C265.183929,105.810745 278.881470,116.570427 292.555359,127.359703 
	C287.278687,129.188461 282.001984,131.017212 276.164429,132.637863 
	C274.231415,130.999130 272.993164,129.403442 271.465668,128.164352 
	C260.545197,119.305771 249.494812,110.606033 238.639664,101.668831 
	C234.229446,98.037834 230.203156,93.940529 226.002167,90.055405 
z"/>
<path fill="#A00088" opacity="1.000000" stroke="none" 
	d="
M259.448364,165.075348 
	C240.474091,150.239410 221.801773,135.071335 203.013504,120.048279 
	C192.913208,111.972115 182.613876,104.144852 172.086426,96.041733 
	C171.611832,90.654510 174.410217,89.085152 179.687775,90.300949 
	C181.533859,92.160934 182.658783,93.855843 184.170074,95.069717 
	C208.189240,114.362091 232.245377,133.608566 256.342651,152.803284 
	C257.995880,154.120178 260.041534,154.944443 261.904694,155.997803 
	C261.170502,158.933060 260.436279,161.868332 259.448364,165.075348 
z"/>
<path fill="#A50082" opacity="1.000000" stroke="none" 
	d="
M262.082794,155.664185 
	C260.041534,154.944443 257.995880,154.120178 256.342651,152.803284 
	C232.245377,133.608566 208.189240,114.362091 184.170074,95.069717 
	C182.658783,93.855843 181.533859,92.160934 180.115234,90.372414 
	C184.028809,90.007523 188.056320,89.960030 192.658035,90.299805 
	C194.447510,92.006966 195.518829,93.505318 196.900055,94.619514 
	C212.909012,107.533554 228.892563,120.481155 245.044769,133.214478 
	C251.249374,138.105774 257.866699,142.473541 264.295990,147.079849 
	C263.617615,149.830078 262.939240,152.580322 262.082794,155.664185 
z"/>
<path fill="#5739F4" opacity="1.000000" stroke="none" 
	d="
M253.725906,334.873566 
	C245.376541,328.937469 237.081177,322.812500 229.012970,316.401581 
	C209.976196,301.275177 191.071915,285.982025 172.039871,270.849640 
	C170.002731,269.229950 167.475815,268.226166 164.783661,266.858948 
	C165.000732,264.334381 165.610260,261.887451 166.717163,259.312317 
	C179.041397,268.512634 190.802368,277.926483 202.721024,287.136261 
	C209.360580,292.266724 216.262589,297.057556 223.046326,302.001434 
	C222.186584,305.467865 223.579437,307.204498 226.933655,308.528900 
	C236.908981,312.467804 246.724350,316.811829 257.224731,321.261353 
	C256.101929,325.727997 254.992538,330.141357 253.725906,334.873566 
z"/>
<path fill="#B00072" opacity="1.000000" stroke="none" 
	d="
M225.538910,89.982269 
	C230.203156,93.940529 234.229446,98.037834 238.639664,101.668831 
	C249.494812,110.606033 260.545197,119.305771 271.465668,128.164352 
	C272.993164,129.403442 274.231415,130.999130 275.795685,132.699615 
	C273.025665,134.427490 270.063507,135.885468 266.631012,137.552139 
	C264.747223,136.903687 263.219879,136.189514 261.937622,135.167755 
	C245.218475,121.845459 228.507355,108.512604 211.883667,95.071770 
	C210.283203,93.777748 209.280258,91.744690 207.999939,90.054703 
	C213.691849,90.006180 219.383743,89.957657 225.538910,89.982269 
z"/>
<path fill="#AA007A" opacity="1.000000" stroke="none" 
	d="
M207.538574,89.982635 
	C209.280258,91.744690 210.283203,93.777748 211.883667,95.071770 
	C228.507355,108.512604 245.218475,121.845459 261.937622,135.167755 
	C263.219879,136.189514 264.747223,136.903687 266.472870,137.877777 
	C266.083588,140.823959 265.382080,143.653183 264.488281,146.781128 
	C257.866699,142.473541 251.249374,138.105774 245.044769,133.214478 
	C228.892563,120.481155 212.909012,107.533554 196.900055,94.619514 
	C195.518829,93.505318 194.447510,92.006966 193.116669,90.371490 
	C197.693130,90.007462 202.385178,89.959015 207.538574,89.982635 
z"/>
<path fill="#BF005B" opacity="1.000000" stroke="none" 
	d="
M292.915100,127.295700 
	C278.881470,116.570427 265.183929,105.810745 251.569901,94.946465 
	C250.197327,93.851143 249.329330,92.123535 248.113739,90.371712 
	C254.691254,90.002831 261.382172,89.951614 268.649902,90.293747 
	C270.826385,92.548927 272.198364,94.687706 274.066071,96.223648 
	C281.347809,102.211922 288.891418,107.884033 296.119293,113.934547 
	C299.346588,116.636131 302.056793,119.955429 305.001678,122.994385 
	C301.092743,124.406822 297.183777,125.819260 292.915100,127.295700 
z"/>
<path fill="#5E2DEB" opacity="1.000000" stroke="none" 
	d="
M168.125671,253.001556 
	C168.974335,249.544006 169.823013,246.086472 171.233429,242.372543 
	C173.792511,243.271317 175.967148,244.202255 177.758148,245.618393 
	C188.467743,254.086517 198.991943,262.791443 209.778519,271.158875 
	C215.638367,275.704498 221.893997,279.739868 227.971130,284.005402 
	C227.134216,287.471619 226.297318,290.937805 224.915924,294.597778 
	C222.432800,293.543488 220.371628,292.449799 218.574921,291.023010 
	C203.795807,279.286865 189.100952,267.444214 174.273285,255.770111 
	C172.559692,254.420975 170.190750,253.904236 168.125671,253.001556 
z"/>
<path fill="#5F59FE" opacity="1.000000" stroke="none" 
	d="
M128.044922,315.709290 
	C141.316010,326.137146 154.252243,336.587524 167.107834,347.136139 
	C168.865494,348.578400 170.221207,350.510437 171.880829,352.525360 
	C165.974487,352.879852 159.950317,352.924744 153.342346,352.594299 
	C151.658844,351.014709 150.691849,349.646484 149.438446,348.632172 
	C139.652786,340.713318 129.774033,332.909088 120.026466,324.944092 
	C118.426537,323.636749 117.328835,321.714752 115.999016,320.076843 
	C119.894211,318.638824 123.789406,317.200836 128.044922,315.709290 
z"/>
<path fill="#6323E3" opacity="1.000000" stroke="none" 
	d="
M228.167374,283.686859 
	C221.893997,279.739868 215.638367,275.704498 209.778519,271.158875 
	C198.991943,262.791443 188.467743,254.086517 177.758148,245.618393 
	C175.967148,244.202255 173.792511,243.271317 171.448639,242.058960 
	C171.792801,238.811111 172.483459,235.620483 173.765106,232.248657 
	C179.322876,235.640961 184.406235,239.064484 189.234344,242.816483 
	C203.016510,253.526810 216.694870,264.370697 230.414062,275.162018 
	C229.730606,277.897461 229.047119,280.632874 228.167374,283.686859 
z"/>
<path fill="#7107CC" opacity="1.000000" stroke="none" 
	d="
M182.825867,197.305359 
	C189.282242,201.611359 195.663742,206.044769 201.737106,210.866333 
	C214.192520,220.754471 226.482742,230.850677 239.069580,241.149445 
	C238.657089,244.082977 238.015976,246.728302 236.880768,249.529053 
	C235.407547,249.059998 234.361328,248.519501 233.459259,247.798584 
	C218.144577,235.559296 202.881821,223.254608 187.508087,211.090103 
	C185.355362,209.386765 182.677750,208.346786 180.243118,206.999725 
	C181.032593,203.869308 181.822067,200.738876 182.825867,197.305359 
z"/>
<path fill="#C70050" opacity="1.000000" stroke="none" 
	d="
M305.375244,122.976196 
	C302.056793,119.955429 299.346588,116.636131 296.119293,113.934547 
	C288.891418,107.884033 281.347809,102.211922 274.066071,96.223648 
	C272.198364,94.687706 270.826385,92.548927 269.113220,90.369240 
	C275.358368,90.000320 281.716980,89.949257 288.652100,90.292801 
	C297.150665,97.124992 305.072754,103.562561 312.994812,110.000130 
	C312.300171,113.041954 312.061859,116.303093 310.743835,119.045288 
	C309.922119,120.754868 307.469513,121.680542 305.375244,122.976196 
z"/>
<path fill="#625DFF" opacity="1.000000" stroke="none" 
	d="
M115.623108,320.082886 
	C117.328835,321.714752 118.426537,323.636749 120.026466,324.944092 
	C129.774033,332.909088 139.652786,340.713318 149.438446,348.632172 
	C150.691849,349.646484 151.658844,351.014709 152.878235,352.526611 
	C146.641418,352.879333 140.284882,352.924408 133.345795,352.593292 
	C124.841827,345.811310 116.920441,339.405518 108.999054,332.999725 
	C110.738724,328.530090 108.352623,322.063843 115.623108,320.082886 
z"/>
<path fill="#6D0ED2" opacity="1.000000" stroke="none" 
	d="
M180.114777,207.358124 
	C182.677750,208.346786 185.355362,209.386765 187.508087,211.090103 
	C202.881821,223.254608 218.144577,235.559296 233.459259,247.798584 
	C234.361328,248.519501 235.407547,249.059998 236.687439,249.839539 
	C236.501709,252.146988 236.015244,254.299393 234.968552,256.648163 
	C232.839615,255.953613 231.120682,255.251709 229.725296,254.142715 
	C214.696579,242.198532 199.753143,230.146759 184.683411,218.254883 
	C182.816559,216.781723 180.352249,216.065720 178.164780,214.998871 
	C178.772003,212.571411 179.379211,210.143967 180.114777,207.358124 
z"/>
<path fill="#5A35F1" opacity="1.000000" stroke="none" 
	d="
M167.979431,253.346893 
	C170.190750,253.904236 172.559692,254.420975 174.273285,255.770111 
	C189.100952,267.444214 203.795807,279.286865 218.574921,291.023010 
	C220.371628,292.449799 222.432800,293.543488 224.702042,294.901733 
	C224.409378,297.096588 223.786072,299.181244 223.104553,301.633667 
	C216.262589,297.057556 209.360580,292.266724 202.721024,287.136261 
	C190.802368,277.926483 179.041397,268.512634 166.903061,258.993347 
	C167.005463,257.099152 167.419327,255.395660 167.979431,253.346893 
z"/>
<path fill="#671CDD" opacity="1.000000" stroke="none" 
	d="
M230.595871,274.839386 
	C216.694870,264.370697 203.016510,253.526810 189.234344,242.816483 
	C184.406235,239.064484 179.322876,235.640961 173.993134,231.963120 
	C174.095428,229.829300 174.560654,227.799789 175.440369,225.443787 
	C177.733307,226.124161 179.803589,226.885956 181.457153,228.180161 
	C188.759186,233.895386 195.889282,239.830017 203.179611,245.560547 
	C212.802933,253.124893 222.517838,260.572723 232.193359,268.070648 
	C231.721481,270.219360 231.249573,272.368042 230.595871,274.839386 
z"/>
<path fill="#6B14D7" opacity="1.000000" stroke="none" 
	d="
M178.026764,215.342545 
	C180.352249,216.065720 182.816559,216.781723 184.683411,218.254883 
	C199.753143,230.146759 214.696579,242.198532 229.725296,254.142715 
	C231.120682,255.251709 232.839615,255.953613 234.753555,256.941010 
	C234.707169,258.911652 234.315552,260.785858 233.455383,262.792206 
	C221.117691,253.581177 209.311203,244.156845 197.354843,234.926651 
	C190.692764,229.783600 183.781235,224.963669 176.982101,219.998138 
	C177.284317,218.560837 177.586533,217.123520 178.026764,215.342545 
z"/>
<path fill="#6917DA" opacity="1.000000" stroke="none" 
	d="
M176.773773,220.266678 
	C183.781235,224.963669 190.692764,229.783600 197.354843,234.926651 
	C209.311203,244.156845 221.117691,253.581177 233.316223,263.120117 
	C233.303894,264.708923 232.962158,266.102051 232.406891,267.782898 
	C222.517838,260.572723 212.802933,253.124893 203.179611,245.560547 
	C195.889282,239.830017 188.759186,233.895386 181.457153,228.180161 
	C179.803589,226.885956 177.733307,226.124161 175.509674,225.059174 
	C175.631500,223.512436 176.098480,222.023834 176.773773,220.266678 
z"/>
<path fill="#CE0045" opacity="1.000000" stroke="none" 
	d="
M313.185211,109.682480 
	C305.072754,103.562561 297.150665,97.124992 289.115234,90.369492 
	C298.599823,90.051567 308.197784,90.051567 318.575195,90.051567 
	C316.726807,96.917145 315.051208,103.140984 313.185211,109.682480 
z"/>
<path fill="#6461FD" opacity="1.000000" stroke="none" 
	d="
M108.793991,333.308441 
	C116.920441,339.405518 124.841827,345.811310 132.881546,352.526550 
	C123.438248,352.836029 113.876625,352.836029 103.503288,352.836029 
	C105.262291,346.188690 106.925613,339.902924 108.793991,333.308441 
z"/>
</svg>